<svg id="Capa_1" data-name="Capa 1" xmlns="http://www.w3.org/2000/svg" viewBox="0 0 128 120.18"><title>logo</title><path d="M38,43.34l-33.48,35L39,45A2.3,2.3,0,0,1,38,43.34Z" style="fill:#fff"/><path d="M39.65,59.26a1.74,1.74,0,0,1-.26-.75L21.24,78.17,40.47,60A2.26,2.26,0,0,1,39.65,59.26Z" style="fill:#fff"/><path d="M44.54,26.82a1.74,1.74,0,0,1-.26-.75L26.13,45.74,45.37,27.59A2.26,2.26,0,0,1,44.54,26.82Z" style="fill:#fff"/><path d="M44.85,70.19a1.74,1.74,0,0,1-.26-.75l-36.46,38L45.67,71A2.26,2.26,0,0,1,44.85,70.19Z" style="fill:#fff"/><path d="M51.84,78.47a2,2,0,0,1-.54-.89L26.59,103.9,52.64,79A2.65,2.65,0,0,1,51.84,78.47Z" style="fill:#fff"/><path d="M76.64,87.7a2.21,2.21,0,0,1-2-.59L50.8,112.49l26-24.82Z" style="fill:#fff"/><path d="M94.48,83.29a2.21,2.21,0,0,1-2-.59L68.64,108.08l26-24.82Z" style="fill:#fff"/><path d="M64.17,84.65a2.21,2.21,0,0,1-2-.59L27.44,120.33,64.31,84.62Z" style="fill:#fff"/><circle cx="77.02" cy="48.29" r="38.86" transform="translate(-11.59 68.61) rotate(-45)" style="fill:#fff"/><path d="M105.36,76.63A40.08,40.08,0,1,1,48.68,20a40.08,40.08,0,1,1,56.68,56.68Zm-55-55a37.64,37.64,0,1,0,53.23,0A37.68,37.68,0,0,0,50.41,21.68Z" style="fill:#282122"/><g style="opacity:0.3"><path d="M64.05,11.65a37.17,37.17,0,1,0,49.61,49.61A38.87,38.87,0,0,0,64.05,11.65Z"/></g><g style="opacity:0.45"><path d="M64.05,11.65a37.11,37.11,0,0,0-10.19,7.23,37.61,37.61,0,0,0-2.54,2.82c8.82-3.46,22.86-6.77,38.09-1.84,10.66,3.45,18.94,10,24.12,15.1a38.89,38.89,0,0,0-49.47-23.3Z" style="fill:#fff"/></g><g style="opacity:0.4"><path d="M113.66,61.26a39,39,0,0,0,1.47-20.6C76,2.9,47.51,29.92,47.51,29.92c28.85-21.47,55.56,24.5,60.09,40.3A37,37,0,0,0,113.66,61.26Z"/></g><g style="opacity:0.1"><path d="M81.4,84.33s-6.89-8.71-6.14-31.23c.6-17.92,1.95-22.29,3.54-30.83,0,0-9.83,32.38-8.18,48.48s1.72,13.61,1.72,13.61"/></g><g style="opacity:0.1"><path d="M53.07,72.25s-6.8-12.64.81-23.92,15.5-17.8,15.61-26c0,0-1.38,3.5-9.24,12.43S49.4,46.45,47.16,53.31s-.27,14.91-.27,14.91"/></g><g style="opacity:0.1"><path d="M42.57,40.53S51,28.38,69.49,22.38c0,0-13.84-1.51-27.14,11.94"/></g><path d="M73.55,87.07l-2.4.42a127.5,127.5,0,0,1,1.22-49.1,140.45,140.45,0,0,1,10-29.84l2.21,1C79.14,21,67.26,51.44,73.55,87.07Z" style="fill:#282122"/><path d="M116.42,40.92l-1.87,1.57C104.68,30.78,92.87,24.21,79.45,23,59.57,21.1,47.36,30.1,40.62,38l-1.85-1.59c7.12-8.31,20-17.81,40.91-15.86A50.25,50.25,0,0,1,101.4,27.8,62.36,62.36,0,0,1,116.42,40.92Z" style="fill:#282122"/><path d="M50.58,75.29,48.4,76.38C44.82,69.2,44,60.32,46.28,53.2c2.38-7.46,7.87-13.27,13.18-18.9l1.35-1.44c3.52-3.76,7.25-8.21,6.9-13.52-.22-3.32-2.13-5.06-6-5.48L62,11.45c6.38.69,8,4.6,8.18,7.75.39,6-3.4,10.91-7.56,15.34L61.23,36c-5.12,5.43-10.42,11-12.63,18A29.57,29.57,0,0,0,50.58,75.29Z" style="fill:#282122"/><path d="M103.57,77.82l-2.39-.49c2.39-11.61-3.13-22.55-8-32.21-4.32-8.56-8-16-5.37-22.07,2.15-4.92,6.47-7.44,12.48-7.3l-.06,2.44C95.15,18.07,91.82,20,90,24c-2.22,5.06,1.27,12,5.31,20C100.4,54,106.12,65.38,103.57,77.82Z" style="fill:#282122"/><path d="M105.36,76.63A40.08,40.08,0,1,1,48.68,20a40.08,40.08,0,1,1,56.68,56.68Zm-55-55a37.64,37.64,0,1,0,53.23,0A37.68,37.68,0,0,0,50.41,21.68Z" style="fill:#282122"/></svg>